<svg xmlns="http://www.w3.org/2000/svg" width="100" height="100"><g fill="none" fill-rule="evenodd"><path fill="#AAA" fill-opacity=".3" d="M50 65.5c-12.929 0-23.923 8.35-28 20h56c-4.077-11.65-15.071-20-28-20"/><path fill="#357DB6" d="M64 85.5h6v-16h-6zM30 85.5h6v-16h-6z"/><path fill="#E5E5E5" d="M80 67.5H20a4 4 0 0 1-4-4v-28a4 4 0 0 1 4-4h60a4 4 0 0 1 4 4v28a4 4 0 0 1-4 4"/><path fill="#60A5DA" d="M74 57.5H52a2 2 0 0 1 0-4h22a2 2 0 0 1 0 4m2-14a2 2 0 0 0-2-2H52a2 2 0 0 0-2 2v4a2 2 0 0 0 2 2h22a2 2 0 0 0 2-2v-4z"/><path fill="#6ACCF2" d="M34 59.5c-5.522 0-10-4.477-10-10s4.478-10 10-10 10 4.477 10 10-4.478 10-10 10"/><path fill="#357DB6" d="M20 67.5v2a4 4 0 0 0 4 4h52a4 4 0 0 0 4-4v-2H20z"/><path stroke="#AAA" stroke-linecap="round" stroke-opacity=".6" stroke-width="3" d="M50 21.5v-6m10 8l4-4m-24 4l-4-4"/></g></svg>